<mxfile host="app.diagrams.net" agent="Mozilla/5.0 (Windows NT 10.0; Win64; x64) AppleWebKit/537.36 (KHTML, like Gecko) Chrome/127.0.0.0 Safari/537.36" version="24.7.7" pages="2">
  <diagram name="DIAGRAMA DE SECUENCIAS" id="L5rqwfbE1oYsRgzt_dVS">
    <mxGraphModel dx="1235" dy="655" grid="1" gridSize="10" guides="1" tooltips="1" connect="1" arrows="1" fold="1" page="1" pageScale="1" pageWidth="827" pageHeight="1169" math="0" shadow="0">
      <root>
        <mxCell id="0" />
        <mxCell id="1" parent="0" />
        <mxCell id="yLn8BAQE9bNZ-dvjHdhl-1" value="&lt;span style=&quot;text-wrap: nowrap;&quot;&gt;TAREAS&lt;/span&gt;" style="shape=umlLifeline;perimeter=lifelinePerimeter;whiteSpace=wrap;html=1;container=1;dropTarget=0;collapsible=0;recursiveResize=0;outlineConnect=0;portConstraint=eastwest;newEdgeStyle={&quot;curved&quot;:0,&quot;rounded&quot;:0};" vertex="1" parent="1">
          <mxGeometry x="380" y="10" width="100" height="300" as="geometry" />
        </mxCell>
        <mxCell id="yLn8BAQE9bNZ-dvjHdhl-2" value="" style="html=1;points=[[0,0,0,0,5],[0,1,0,0,-5],[1,0,0,0,5],[1,1,0,0,-5]];perimeter=orthogonalPerimeter;outlineConnect=0;targetShapes=umlLifeline;portConstraint=eastwest;newEdgeStyle={&quot;curved&quot;:0,&quot;rounded&quot;:0};" vertex="1" parent="yLn8BAQE9bNZ-dvjHdhl-1">
          <mxGeometry x="45" y="60" width="10" height="220" as="geometry" />
        </mxCell>
        <mxCell id="yLn8BAQE9bNZ-dvjHdhl-3" value="&lt;span style=&quot;text-wrap: nowrap;&quot;&gt;ASIGNACIONES&lt;/span&gt;" style="shape=umlLifeline;perimeter=lifelinePerimeter;whiteSpace=wrap;html=1;container=1;dropTarget=0;collapsible=0;recursiveResize=0;outlineConnect=0;portConstraint=eastwest;newEdgeStyle={&quot;curved&quot;:0,&quot;rounded&quot;:0};" vertex="1" parent="1">
          <mxGeometry x="740" y="10" width="110" height="300" as="geometry" />
        </mxCell>
        <mxCell id="yLn8BAQE9bNZ-dvjHdhl-4" value="" style="html=1;points=[[0,0,0,0,5],[0,1,0,0,-5],[1,0,0,0,5],[1,1,0,0,-5]];perimeter=orthogonalPerimeter;outlineConnect=0;targetShapes=umlLifeline;portConstraint=eastwest;newEdgeStyle={&quot;curved&quot;:0,&quot;rounded&quot;:0};" vertex="1" parent="yLn8BAQE9bNZ-dvjHdhl-3">
          <mxGeometry x="50" y="110" width="10" height="90" as="geometry" />
        </mxCell>
        <mxCell id="yLn8BAQE9bNZ-dvjHdhl-5" value="&lt;span style=&quot;text-wrap: nowrap;&quot;&gt;&lt;i&gt;PROJECT ADMIN&lt;/i&gt;&lt;/span&gt;" style="shape=umlLifeline;perimeter=lifelinePerimeter;whiteSpace=wrap;html=1;container=1;dropTarget=0;collapsible=0;recursiveResize=0;outlineConnect=0;portConstraint=eastwest;newEdgeStyle={&quot;curved&quot;:0,&quot;rounded&quot;:0};" vertex="1" parent="1">
          <mxGeometry x="220" y="10" width="110" height="300" as="geometry" />
        </mxCell>
        <mxCell id="yLn8BAQE9bNZ-dvjHdhl-6" value="" style="html=1;points=[[0,0,0,0,5],[0,1,0,0,-5],[1,0,0,0,5],[1,1,0,0,-5]];perimeter=orthogonalPerimeter;outlineConnect=0;targetShapes=umlLifeline;portConstraint=eastwest;newEdgeStyle={&quot;curved&quot;:0,&quot;rounded&quot;:0};" vertex="1" parent="yLn8BAQE9bNZ-dvjHdhl-5">
          <mxGeometry x="50" y="60" width="10" height="220" as="geometry" />
        </mxCell>
        <mxCell id="yLn8BAQE9bNZ-dvjHdhl-7" value="&lt;span style=&quot;font-size: 12px; text-align: left; background-color: rgb(251, 251, 251);&quot;&gt;agregarSubTarea&lt;/span&gt;" style="html=1;verticalAlign=bottom;startArrow=oval;startFill=1;endArrow=block;startSize=8;curved=0;rounded=0;" edge="1" parent="1" source="yLn8BAQE9bNZ-dvjHdhl-6" target="yLn8BAQE9bNZ-dvjHdhl-2">
          <mxGeometry x="-0.0345" width="60" relative="1" as="geometry">
            <mxPoint x="280" y="110" as="sourcePoint" />
            <mxPoint x="579.5" y="110" as="targetPoint" />
            <mxPoint as="offset" />
            <Array as="points">
              <mxPoint x="400" y="90" />
            </Array>
          </mxGeometry>
        </mxCell>
        <mxCell id="yLn8BAQE9bNZ-dvjHdhl-8" value="&lt;span style=&quot;font-size: 12px; text-align: left; background-color: rgb(251, 251, 251);&quot;&gt;Subtarea&lt;/span&gt;" style="html=1;verticalAlign=bottom;endArrow=block;curved=0;rounded=0;dashed=1;entryX=0.333;entryY=0.623;entryDx=0;entryDy=0;entryPerimeter=0;" edge="1" parent="1">
          <mxGeometry x="0.0019" relative="1" as="geometry">
            <mxPoint x="426.17" y="270" as="sourcePoint" />
            <mxPoint x="270.00000000000006" y="270" as="targetPoint" />
            <mxPoint as="offset" />
          </mxGeometry>
        </mxCell>
        <mxCell id="yLn8BAQE9bNZ-dvjHdhl-11" value="&lt;div style=&quot;text-align: left;&quot;&gt;&lt;span style=&quot;font-size: 12px; background-color: rgb(251, 251, 251);&quot;&gt;notificarAsignacion&lt;/span&gt;&lt;br&gt;&lt;/div&gt;" style="html=1;verticalAlign=bottom;startArrow=oval;startFill=1;endArrow=block;startSize=8;curved=0;rounded=0;" edge="1" parent="1">
          <mxGeometry x="-0.0345" width="60" relative="1" as="geometry">
            <mxPoint x="430" y="254.58" as="sourcePoint" />
            <mxPoint x="1113" y="254.58" as="targetPoint" />
            <mxPoint as="offset" />
          </mxGeometry>
        </mxCell>
        <mxCell id="yLn8BAQE9bNZ-dvjHdhl-12" value="&lt;span style=&quot;text-wrap: nowrap;&quot;&gt;NOTIFICACIONES&amp;nbsp;&lt;/span&gt;" style="shape=umlLifeline;perimeter=lifelinePerimeter;whiteSpace=wrap;html=1;container=1;dropTarget=0;collapsible=0;recursiveResize=0;outlineConnect=0;portConstraint=eastwest;newEdgeStyle={&quot;curved&quot;:0,&quot;rounded&quot;:0};" vertex="1" parent="1">
          <mxGeometry x="1063" y="10" width="110" height="300" as="geometry" />
        </mxCell>
        <mxCell id="yLn8BAQE9bNZ-dvjHdhl-13" value="" style="html=1;points=[[0,0,0,0,5],[0,1,0,0,-5],[1,0,0,0,5],[1,1,0,0,-5]];perimeter=orthogonalPerimeter;outlineConnect=0;targetShapes=umlLifeline;portConstraint=eastwest;newEdgeStyle={&quot;curved&quot;:0,&quot;rounded&quot;:0};" vertex="1" parent="yLn8BAQE9bNZ-dvjHdhl-12">
          <mxGeometry x="50" y="210" width="10" height="50" as="geometry" />
        </mxCell>
        <mxCell id="yLn8BAQE9bNZ-dvjHdhl-14" value="" style="html=1;points=[[0,0,0,0,5],[0,1,0,0,-5],[1,0,0,0,5],[1,1,0,0,-5]];perimeter=orthogonalPerimeter;outlineConnect=0;targetShapes=umlLifeline;portConstraint=eastwest;newEdgeStyle={&quot;curved&quot;:0,&quot;rounded&quot;:0};" vertex="1" parent="yLn8BAQE9bNZ-dvjHdhl-12">
          <mxGeometry x="60" y="226.25" width="10" height="30" as="geometry" />
        </mxCell>
        <mxCell id="yLn8BAQE9bNZ-dvjHdhl-15" value="" style="edgeStyle=orthogonalEdgeStyle;rounded=0;orthogonalLoop=1;jettySize=auto;html=1;curved=0;entryX=1;entryY=1;entryDx=0;entryDy=-5;entryPerimeter=0;" edge="1" parent="yLn8BAQE9bNZ-dvjHdhl-12" source="yLn8BAQE9bNZ-dvjHdhl-14" target="yLn8BAQE9bNZ-dvjHdhl-14">
          <mxGeometry relative="1" as="geometry">
            <Array as="points">
              <mxPoint x="140" y="241" />
              <mxPoint x="140" y="251" />
              <mxPoint x="90" y="251" />
            </Array>
          </mxGeometry>
        </mxCell>
        <mxCell id="yLn8BAQE9bNZ-dvjHdhl-16" value="enviarNotificacion" style="text;html=1;align=center;verticalAlign=middle;resizable=0;points=[];autosize=1;strokeColor=none;fillColor=none;" vertex="1" parent="1">
          <mxGeometry x="1193" y="240" width="120" height="30" as="geometry" />
        </mxCell>
        <mxCell id="yLn8BAQE9bNZ-dvjHdhl-17" value="&lt;span style=&quot;text-wrap: nowrap;&quot;&gt;MIEMBROS DEL EQUIPO&lt;/span&gt;" style="shape=umlLifeline;perimeter=lifelinePerimeter;whiteSpace=wrap;html=1;container=1;dropTarget=0;collapsible=0;recursiveResize=0;outlineConnect=0;portConstraint=eastwest;newEdgeStyle={&quot;curved&quot;:0,&quot;rounded&quot;:0};" vertex="1" parent="1">
          <mxGeometry x="903" y="10" width="110" height="300" as="geometry" />
        </mxCell>
        <mxCell id="yLn8BAQE9bNZ-dvjHdhl-18" value="" style="html=1;points=[[0,0,0,0,5],[0,1,0,0,-5],[1,0,0,0,5],[1,1,0,0,-5]];perimeter=orthogonalPerimeter;outlineConnect=0;targetShapes=umlLifeline;portConstraint=eastwest;newEdgeStyle={&quot;curved&quot;:0,&quot;rounded&quot;:0};" vertex="1" parent="yLn8BAQE9bNZ-dvjHdhl-17">
          <mxGeometry x="50" y="140" width="10" height="50" as="geometry" />
        </mxCell>
        <mxCell id="yLn8BAQE9bNZ-dvjHdhl-19" value="&lt;span style=&quot;font-size: 12px; text-align: left; background-color: rgb(251, 251, 251); text-decoration-line: underline;&quot;&gt;crearAsignacio&lt;/span&gt;" style="html=1;verticalAlign=bottom;startArrow=oval;startFill=1;endArrow=block;startSize=8;curved=0;rounded=0;" edge="1" parent="1">
          <mxGeometry x="-0.0355" width="60" relative="1" as="geometry">
            <mxPoint x="800" y="159.58" as="sourcePoint" />
            <mxPoint x="953" y="159.58" as="targetPoint" />
            <mxPoint as="offset" />
          </mxGeometry>
        </mxCell>
        <mxCell id="yLn8BAQE9bNZ-dvjHdhl-20" value="&lt;span style=&quot;font-size: 12px; text-align: left; background-color: rgb(251, 251, 251);&quot;&gt;Miembro del Equipo&lt;/span&gt;" style="html=1;verticalAlign=bottom;endArrow=block;curved=0;rounded=0;dashed=1;entryX=0.333;entryY=0.623;entryDx=0;entryDy=0;entryPerimeter=0;" edge="1" parent="1">
          <mxGeometry x="0.0019" relative="1" as="geometry">
            <mxPoint x="953" y="190.29" as="sourcePoint" />
            <mxPoint x="793" y="190.00000000000003" as="targetPoint" />
            <mxPoint as="offset" />
          </mxGeometry>
        </mxCell>
        <mxCell id="QC1WbzcmHW6lIZ6rsz0u-12" value="&lt;span style=&quot;text-wrap: nowrap;&quot;&gt;SUBTAREAS&lt;/span&gt;" style="shape=umlLifeline;perimeter=lifelinePerimeter;whiteSpace=wrap;html=1;container=1;dropTarget=0;collapsible=0;recursiveResize=0;outlineConnect=0;portConstraint=eastwest;newEdgeStyle={&quot;curved&quot;:0,&quot;rounded&quot;:0};" vertex="1" parent="1">
          <mxGeometry x="560" y="10" width="110" height="300" as="geometry" />
        </mxCell>
        <mxCell id="QC1WbzcmHW6lIZ6rsz0u-13" value="" style="html=1;points=[[0,0,0,0,5],[0,1,0,0,-5],[1,0,0,0,5],[1,1,0,0,-5]];perimeter=orthogonalPerimeter;outlineConnect=0;targetShapes=umlLifeline;portConstraint=eastwest;newEdgeStyle={&quot;curved&quot;:0,&quot;rounded&quot;:0};" vertex="1" parent="QC1WbzcmHW6lIZ6rsz0u-12">
          <mxGeometry x="50" y="102.5" width="10" height="107.5" as="geometry" />
        </mxCell>
        <mxCell id="QC1WbzcmHW6lIZ6rsz0u-14" value="&lt;span style=&quot;font-size: 12px; text-align: left; background-color: rgb(251, 251, 251);&quot;&gt;crearSubtarea&lt;/span&gt;" style="html=1;verticalAlign=bottom;startArrow=oval;startFill=1;endArrow=block;startSize=8;curved=0;rounded=0;" edge="1" parent="1" target="QC1WbzcmHW6lIZ6rsz0u-13">
          <mxGeometry x="-0.0345" width="60" relative="1" as="geometry">
            <mxPoint x="430" y="130" as="sourcePoint" />
            <mxPoint x="575" y="130" as="targetPoint" />
            <mxPoint as="offset" />
            <Array as="points">
              <mxPoint x="550" y="130" />
            </Array>
          </mxGeometry>
        </mxCell>
        <mxCell id="QC1WbzcmHW6lIZ6rsz0u-15" value="&lt;div style=&quot;text-align: left;&quot;&gt;&lt;span style=&quot;font-size: 12px; background-color: rgb(251, 251, 251);&quot;&gt;SubTarea&lt;/span&gt;&lt;/div&gt;" style="html=1;verticalAlign=bottom;endArrow=block;curved=0;rounded=0;dashed=1;entryX=0.333;entryY=0.623;entryDx=0;entryDy=0;entryPerimeter=0;" edge="1" parent="1">
          <mxGeometry x="0.0019" relative="1" as="geometry">
            <mxPoint x="610" y="210" as="sourcePoint" />
            <mxPoint x="430" y="210.00000000000003" as="targetPoint" />
            <mxPoint as="offset" />
          </mxGeometry>
        </mxCell>
        <mxCell id="QC1WbzcmHW6lIZ6rsz0u-17" value="&lt;span style=&quot;font-size: 12px; text-align: left; background-color: rgb(251, 251, 251); text-decoration-line: underline;&quot;&gt;asignarMiebreTarea&lt;/span&gt;" style="html=1;verticalAlign=bottom;startArrow=oval;startFill=1;endArrow=block;startSize=8;curved=0;rounded=0;" edge="1" parent="1">
          <mxGeometry x="-0.0355" width="60" relative="1" as="geometry">
            <mxPoint x="620" y="150" as="sourcePoint" />
            <mxPoint x="790" y="150" as="targetPoint" />
            <mxPoint as="offset" />
          </mxGeometry>
        </mxCell>
        <mxCell id="QC1WbzcmHW6lIZ6rsz0u-18" value="&lt;div style=&quot;text-align: left;&quot;&gt;&lt;span style=&quot;font-size: 12px; background-color: rgb(251, 251, 251);&quot;&gt;Asignacion&lt;/span&gt;&lt;/div&gt;" style="html=1;verticalAlign=bottom;endArrow=block;curved=0;rounded=0;dashed=1;entryX=0.333;entryY=0.623;entryDx=0;entryDy=0;entryPerimeter=0;" edge="1" parent="1">
          <mxGeometry x="0.0019" relative="1" as="geometry">
            <mxPoint x="790" y="200" as="sourcePoint" />
            <mxPoint x="610" y="200.00000000000003" as="targetPoint" />
            <mxPoint as="offset" />
          </mxGeometry>
        </mxCell>
      </root>
    </mxGraphModel>
  </diagram>
  <diagram id="VjPJoSx9s5VZTzMa29An" name="DIAGRAMA DE ACTIVIDADES">
    <mxGraphModel dx="1273" dy="1114" grid="1" gridSize="10" guides="1" tooltips="1" connect="1" arrows="1" fold="1" page="1" pageScale="1" pageWidth="827" pageHeight="1169" math="0" shadow="0">
      <root>
        <mxCell id="0" />
        <mxCell id="1" parent="0" />
        <mxCell id="ypXY6X7P4j2D2hKnz1wN-1" value="Administrador de proyecto" style="swimlane;horizontal=0;whiteSpace=wrap;html=1;" vertex="1" parent="1">
          <mxGeometry x="930" y="120" width="1890" height="270" as="geometry" />
        </mxCell>
        <mxCell id="ypXY6X7P4j2D2hKnz1wN-2" value="" style="verticalLabelPosition=bottom;verticalAlign=top;html=1;shape=mxgraph.flowchart.on-page_reference;fillColor=#000000" vertex="1" parent="ypXY6X7P4j2D2hKnz1wN-1">
          <mxGeometry x="50" y="50" width="40" height="40" as="geometry" />
        </mxCell>
        <mxCell id="ypXY6X7P4j2D2hKnz1wN-3" value="Iniciar sesión en el sistema SSAP" style="rounded=1;whiteSpace=wrap;html=1;" vertex="1" parent="ypXY6X7P4j2D2hKnz1wN-1">
          <mxGeometry x="140" y="40" width="120" height="60" as="geometry" />
        </mxCell>
        <mxCell id="ypXY6X7P4j2D2hKnz1wN-4" value="" style="edgeStyle=orthogonalEdgeStyle;rounded=0;orthogonalLoop=1;jettySize=auto;html=1;" edge="1" parent="ypXY6X7P4j2D2hKnz1wN-1" source="ypXY6X7P4j2D2hKnz1wN-2" target="ypXY6X7P4j2D2hKnz1wN-3">
          <mxGeometry relative="1" as="geometry" />
        </mxCell>
        <mxCell id="ypXY6X7P4j2D2hKnz1wN-11" value="Ingresar a la interfaz del proyecto" style="rounded=1;whiteSpace=wrap;html=1;" vertex="1" parent="ypXY6X7P4j2D2hKnz1wN-1">
          <mxGeometry x="311" y="40" width="120" height="60" as="geometry" />
        </mxCell>
        <mxCell id="ypXY6X7P4j2D2hKnz1wN-13" value="" style="edgeStyle=orthogonalEdgeStyle;rounded=0;orthogonalLoop=1;jettySize=auto;html=1;" edge="1" parent="ypXY6X7P4j2D2hKnz1wN-1" source="ypXY6X7P4j2D2hKnz1wN-3" target="ypXY6X7P4j2D2hKnz1wN-11">
          <mxGeometry relative="1" as="geometry" />
        </mxCell>
        <mxCell id="ypXY6X7P4j2D2hKnz1wN-27" value="Ingresar a la interfaz de la tarea" style="rounded=1;whiteSpace=wrap;html=1;" vertex="1" parent="ypXY6X7P4j2D2hKnz1wN-1">
          <mxGeometry x="500" y="40" width="120" height="60" as="geometry" />
        </mxCell>
        <mxCell id="ypXY6X7P4j2D2hKnz1wN-12" value="" style="edgeStyle=orthogonalEdgeStyle;rounded=0;orthogonalLoop=1;jettySize=auto;html=1;" edge="1" parent="ypXY6X7P4j2D2hKnz1wN-1" source="ypXY6X7P4j2D2hKnz1wN-11" target="ypXY6X7P4j2D2hKnz1wN-27">
          <mxGeometry relative="1" as="geometry">
            <mxPoint x="500" y="70" as="targetPoint" />
          </mxGeometry>
        </mxCell>
        <mxCell id="ypXY6X7P4j2D2hKnz1wN-14" value="SSAP&amp;nbsp;" style="swimlane;horizontal=0;whiteSpace=wrap;html=1;startSize=23;" vertex="1" parent="1">
          <mxGeometry x="930" y="390" width="1890" height="160" as="geometry" />
        </mxCell>
        <mxCell id="ypXY6X7P4j2D2hKnz1wN-5" value="Ingresar datos solicitados" style="rounded=1;whiteSpace=wrap;html=1;" vertex="1" parent="ypXY6X7P4j2D2hKnz1wN-14">
          <mxGeometry x="670" y="-230" width="120" height="60" as="geometry" />
        </mxCell>
        <mxCell id="ypXY6X7P4j2D2hKnz1wN-6" value="" style="edgeStyle=orthogonalEdgeStyle;rounded=0;orthogonalLoop=1;jettySize=auto;html=1;" edge="1" parent="ypXY6X7P4j2D2hKnz1wN-14" source="ypXY6X7P4j2D2hKnz1wN-5" target="ypXY6X7P4j2D2hKnz1wN-9">
          <mxGeometry relative="1" as="geometry">
            <mxPoint x="860" y="-200" as="targetPoint" />
          </mxGeometry>
        </mxCell>
        <mxCell id="ypXY6X7P4j2D2hKnz1wN-7" value="" style="edgeStyle=orthogonalEdgeStyle;rounded=0;orthogonalLoop=1;jettySize=auto;html=1;" edge="1" parent="ypXY6X7P4j2D2hKnz1wN-14" source="ypXY6X7P4j2D2hKnz1wN-9" target="ypXY6X7P4j2D2hKnz1wN-10">
          <mxGeometry relative="1" as="geometry" />
        </mxCell>
        <mxCell id="ypXY6X7P4j2D2hKnz1wN-8" value="Si" style="edgeLabel;html=1;align=center;verticalAlign=middle;resizable=0;points=[];" vertex="1" connectable="0" parent="ypXY6X7P4j2D2hKnz1wN-7">
          <mxGeometry x="-0.1571" y="-2" relative="1" as="geometry">
            <mxPoint as="offset" />
          </mxGeometry>
        </mxCell>
        <mxCell id="ypXY6X7P4j2D2hKnz1wN-9" value="¿Hay miembros del equipo disponibles?" style="rhombus;whiteSpace=wrap;html=1;" vertex="1" parent="ypXY6X7P4j2D2hKnz1wN-14">
          <mxGeometry x="845" y="-261.87" width="110" height="123.75" as="geometry" />
        </mxCell>
        <mxCell id="ypXY6X7P4j2D2hKnz1wN-10" value="Asigna miembro de equipo a la tarea" style="whiteSpace=wrap;html=1;" vertex="1" parent="ypXY6X7P4j2D2hKnz1wN-14">
          <mxGeometry x="840" y="-80" width="120" height="60" as="geometry" />
        </mxCell>
        <mxCell id="ypXY6X7P4j2D2hKnz1wN-15" value="" style="ellipse;html=1;shape=endState;fillColor=#000000;strokeColor=#ff0000;" vertex="1" parent="ypXY6X7P4j2D2hKnz1wN-14">
          <mxGeometry x="1752" y="50" width="40" height="40" as="geometry" />
        </mxCell>
        <mxCell id="ypXY6X7P4j2D2hKnz1wN-16" value="Envia notificacion de asignacion" style="whiteSpace=wrap;html=1;" vertex="1" parent="ypXY6X7P4j2D2hKnz1wN-14">
          <mxGeometry x="840" y="40" width="120" height="60" as="geometry" />
        </mxCell>
        <mxCell id="ypXY6X7P4j2D2hKnz1wN-17" style="edgeStyle=orthogonalEdgeStyle;rounded=0;orthogonalLoop=1;jettySize=auto;html=1;" edge="1" parent="ypXY6X7P4j2D2hKnz1wN-14" source="ypXY6X7P4j2D2hKnz1wN-18" target="ypXY6X7P4j2D2hKnz1wN-23">
          <mxGeometry relative="1" as="geometry" />
        </mxCell>
        <mxCell id="ypXY6X7P4j2D2hKnz1wN-18" value="Genera un identificador unico" style="whiteSpace=wrap;html=1;" vertex="1" parent="ypXY6X7P4j2D2hKnz1wN-14">
          <mxGeometry x="1200" y="40" width="120" height="60" as="geometry" />
        </mxCell>
        <mxCell id="ypXY6X7P4j2D2hKnz1wN-19" style="edgeStyle=orthogonalEdgeStyle;rounded=0;orthogonalLoop=1;jettySize=auto;html=1;" edge="1" parent="ypXY6X7P4j2D2hKnz1wN-14" source="ypXY6X7P4j2D2hKnz1wN-20" target="ypXY6X7P4j2D2hKnz1wN-15">
          <mxGeometry relative="1" as="geometry" />
        </mxCell>
        <mxCell id="ypXY6X7P4j2D2hKnz1wN-20" value="Guarda en base de datos" style="whiteSpace=wrap;html=1;" vertex="1" parent="ypXY6X7P4j2D2hKnz1wN-14">
          <mxGeometry x="1562" y="40" width="120" height="60" as="geometry" />
        </mxCell>
        <mxCell id="ypXY6X7P4j2D2hKnz1wN-21" style="edgeStyle=orthogonalEdgeStyle;rounded=0;orthogonalLoop=1;jettySize=auto;html=1;entryX=0;entryY=0.5;entryDx=0;entryDy=0;" edge="1" parent="ypXY6X7P4j2D2hKnz1wN-14" source="ypXY6X7P4j2D2hKnz1wN-16" target="ypXY6X7P4j2D2hKnz1wN-18">
          <mxGeometry relative="1" as="geometry" />
        </mxCell>
        <mxCell id="ypXY6X7P4j2D2hKnz1wN-22" style="edgeStyle=orthogonalEdgeStyle;rounded=0;orthogonalLoop=1;jettySize=auto;html=1;" edge="1" parent="ypXY6X7P4j2D2hKnz1wN-14" source="ypXY6X7P4j2D2hKnz1wN-23" target="ypXY6X7P4j2D2hKnz1wN-20">
          <mxGeometry relative="1" as="geometry" />
        </mxCell>
        <mxCell id="ypXY6X7P4j2D2hKnz1wN-23" value="Asociar la tarea al proyecto&amp;nbsp;" style="whiteSpace=wrap;html=1;" vertex="1" parent="ypXY6X7P4j2D2hKnz1wN-14">
          <mxGeometry x="1372" y="40" width="120" height="60" as="geometry" />
        </mxCell>
        <mxCell id="ypXY6X7P4j2D2hKnz1wN-24" style="edgeStyle=orthogonalEdgeStyle;rounded=0;orthogonalLoop=1;jettySize=auto;html=1;" edge="1" parent="ypXY6X7P4j2D2hKnz1wN-14" source="ypXY6X7P4j2D2hKnz1wN-10" target="ypXY6X7P4j2D2hKnz1wN-16">
          <mxGeometry relative="1" as="geometry" />
        </mxCell>
        <mxCell id="ypXY6X7P4j2D2hKnz1wN-25" style="edgeStyle=orthogonalEdgeStyle;rounded=0;orthogonalLoop=1;jettySize=auto;html=1;" edge="1" parent="ypXY6X7P4j2D2hKnz1wN-14" source="ypXY6X7P4j2D2hKnz1wN-9" target="ypXY6X7P4j2D2hKnz1wN-18">
          <mxGeometry relative="1" as="geometry">
            <mxPoint x="1318" y="-200" as="targetPoint" />
          </mxGeometry>
        </mxCell>
        <mxCell id="ypXY6X7P4j2D2hKnz1wN-26" value="No" style="edgeLabel;html=1;align=center;verticalAlign=middle;resizable=0;points=[];" vertex="1" connectable="0" parent="ypXY6X7P4j2D2hKnz1wN-25">
          <mxGeometry x="-0.5856" y="-1" relative="1" as="geometry">
            <mxPoint as="offset" />
          </mxGeometry>
        </mxCell>
        <mxCell id="ypXY6X7P4j2D2hKnz1wN-28" style="edgeStyle=orthogonalEdgeStyle;rounded=0;orthogonalLoop=1;jettySize=auto;html=1;" edge="1" parent="1" source="ypXY6X7P4j2D2hKnz1wN-27" target="ypXY6X7P4j2D2hKnz1wN-5">
          <mxGeometry relative="1" as="geometry" />
        </mxCell>
      </root>
    </mxGraphModel>
  </diagram>
</mxfile>
